#!OML:ASF H:\Dans Jumps\Project 1\Capture day 1\Session 1\subject.ASF
:FULLY-SPECIFIED
:DEGREES
527
root 0.50781 17.7095 2.38567 7.35358 0.141136 -1.70943
lowerback 1.05046 -0.435129 -0.654765
upperback 3.55785 -0.614478 1.57305
thorax 3.08967 -0.350594 1.97414
lowerneck -11.7841 0.0397625 -1.71448
upperneck 35.5879 0.0524199 1.26968
head 14.1075 -0.0432548 0.825484
rclavicle 6.80837e-015 -2.48481e-015
rhumerus -30.3991 -20.1949 -75.3471
rradius 21.8701
rwrist 36.3986
rhand -18.1771 -26.7242
rfingers 7.12502
rthumb 8.09945 -56.549
lclavicle 6.80837e-015 -2.48481e-015
lhumerus -26.4203 4.05224 85.9257
lradius 13.4417
lwrist -4.68809
lhand -22.6724 -3.90251
lfingers 7.12502
lthumb 3.75947 26.0441
rfemur -17.86 -3.15512 20.3085
rtibia 23.3713
rfoot -11.3247 -2.51759
rtoes 13.2327
lfemur -16.881 7.99812 -17.6817
ltibia 21.0855
lfoot -8.91511 3.90305
ltoes -2.53741
528
root 0.50747 17.7118 2.38557 7.35052 0.146093 -1.71506
lowerback 1.01036 -0.42949 -0.662025
upperback 3.53939 -0.606904 1.57818
thorax 3.09302 -0.347001 1.98339
lowerneck -11.7931 0.0342232 -1.72479
upperneck 35.5932 0.0384766 1.29456
head 14.1122 -0.0472524 0.835413
rclavicle 1.9133e-014 -1.03368e-014
rhumerus -30.3222 -20.1701 -75.4327
rradius 21.8897
rwrist 36.3765
rhand -18.1678 -26.7066
rfingers 7.12502
rthumb 8.10843 -56.531
lclavicle 1.9133e-014 -1.03368e-014
lhumerus -26.2746 3.65838 86.1471
lradius 13.667
lwrist -4.15203
lhand -22.683 -3.8143
lfingers 7.12502
lthumb 3.74927 26.1325
rfemur -17.8047 -3.16382 20.314
rtibia 23.2746
rfoot -11.2923 -2.50145
rtoes 13.3064
lfemur -16.8269 7.96943 -17.6689
ltibia 20.9914
lfoot -8.87519 3.91109
ltoes -2.51381
529
root 0.50708 17.7139 2.38511 7.34303 0.145629 -1.72042
lowerback 0.975065 -0.42197 -0.668901
upperback 3.52128 -0.596786 1.58214
thorax 3.09391 -0.342094 1.99128
lowerneck -11.7994 0.0304968 -1.73529
upperneck 35.6024 0.0269921 1.3201
head 14.118 -0.0501505 0.846043
rclavicle -6.95746e-016 2.98177e-016
rhumerus -30.2269 -20.108 -75.5471
rradius 21.9303
rwrist 36.3143
rhand -18.1543 -26.6825
rfingers 7.12502
rthumb 8.12146 -56.5064
lclavicle -6.95746e-016 2.98177e-016
lhumerus -26.1189 3.24036 86.3705
lradius 13.936
lwrist -3.54215
lhand -22.6689 -3.62793
lfingers 7.12502
lthumb 3.76283 26.3186
rfemur -17.7496 -3.162 20.3187
rtibia 23.1848
rfoot -11.2626 -2.49298
rtoes 13.3829
lfemur -16.7697 7.94128 -17.6555
ltibia 20.9001
lfoot -8.83486 3.9224
ltoes -2.48545
530
root 0.506696 17.7157 2.3845 7.33077 0.139531 -1.72347
lowerback 0.942114 -0.413007 -0.675939
upperback 3.50511 -0.58469 1.58346
thorax 3.09536 -0.336178 1.99662
lowerneck -11.8102 0.0277901 -1.74245
upperneck 35.6167 0.0170787 1.34307
head 14.1272 -0.0522928 0.855351
rclavicle 5.01931e-015 -8.94531e-015
rhumerus -30.1141 -20.0099 -75.6909
rradius 21.9969
rwrist 36.2077
rhand -18.1396 -26.6506
rfingers 7.12502
rthumb 8.13561 -56.474
lclavicle 5.01931e-015 -8.94531e-015
lhumerus -25.9509 2.79514 86.5945
lradius 14.2402
lwrist -2.86919
lhand -22.6321 -3.36817
lfingers 7.12502
lthumb 3.79838 26.5777
rfemur -17.6914 -3.15451 20.32
rtibia 23.0976
rfoot -11.235 -2.48549
rtoes 13.4717
lfemur -16.7096 7.91663 -17.6445
ltibia 20.8138
lfoot -8.79587 3.93591
ltoes -2.46148
531
root 0.50625 17.7174 2.38366 7.31593 0.129192 -1.72641
lowerback 0.910494 -0.404053 -0.682736
upperback 3.48939 -0.572588 1.58395
thorax 3.09652 -0.33024 2.00097
lowerneck -11.8219 0.0286814 -1.74248
upperneck 35.6342 0.0135411 1.35761
head 14.1379 -0.051884 0.860972
rclavicle -2.78299e-015 -1.2921e-014
rhumerus -29.9838 -19.8741 -75.8623
rradius 22.0895
rwrist 36.0521
rhand -18.1118 -26.6149
rfingers 7.12502
rthumb 8.16243 -56.4372
lclavicle -2.78299e-015 -1.2921e-014
lhumerus -25.7704 2.32755 86.8166
lradius 14.5672
lwrist -2.15177
lhand -22.6115 -3.11282
lfingers 7.12502
lthumb 3.81832 26.8327
rfemur -17.6332 -3.13942 20.3207
rtibia 23.014
rfoot -11.2062 -2.48374
rtoes 13.5474
lfemur -16.6496 7.89793 -17.6337
ltibia 20.7328
lfoot -8.75977 3.94843
ltoes -2.42957
532
root 0.505854 17.7189 2.38254 7.29824 0.116856 -1.73474
lowerback 0.881281 -0.39549 -0.681487
upperback 3.47557 -0.5611 1.5845
thorax 3.0982 -0.324399 2.00088
lowerneck -11.8374 0.0326701 -1.73238
upperneck 35.6518 0.0159421 1.36077
head 14.1494 -0.0490808 0.861089
rclavicle -1.2424e-015 -1.19271e-014
rhumerus -29.8339 -19.6982 -76.0636
rradius 22.2106
rwrist 35.8476
rhand -18.0802 -26.5737
rfingers 7.12502
rthumb 8.19291 -56.3949
lclavicle -1.2424e-015 -1.19271e-014
lhumerus -25.5758 1.84774 87.0321
lradius 14.9111
lwrist -1.41362
lhand -22.613 -2.87219
lfingers 7.12502
lthumb 3.81683 27.0734
rfemur -17.5739 -3.1209 20.3267
rtibia 22.9323
rfoot -11.1767 -2.48304
rtoes 13.6128
lfemur -16.591 7.88437 -17.6173
ltibia 20.659
lfoot -8.72732 3.95958
ltoes -2.39238
533
root 0.505507 17.7203 2.38106 7.28084 0.105465 -1.74312
lowerback 0.852748 -0.389083 -0.678802
upperback 3.46228 -0.552501 1.58481
thorax 3.10016 -0.319962 1.99969
lowerneck -11.852 0.0379544 -1.71726
upperneck 35.6647 0.021437 1.35665
head 14.1585 -0.0452388 0.857766
rclavicle -1.83876e-015 -4.07509e-015
rhumerus -29.6635 -19.4746 -76.2946
rradius 22.3556
rwrist 35.5944
rhand -18.045 -26.5398
rfingers 7.12502
rthumb 8.22694 -56.3596
lclavicle -1.83876e-015 -4.07509e-015
lhumerus -25.3673 1.37684 87.2331
lradius 15.2599
lwrist -0.694501
lhand -22.6637 -2.71494
lfingers 7.12502
lthumb 3.76788 27.2315
rfemur -17.5187 -3.10432 20.3327
rtibia 22.8554
rfoot -11.1481 -2.48102
rtoes 13.6573
lfemur -16.5384 7.8748 -17.602
ltibia 20.5925
lfoot -8.69842 3.96917
ltoes -2.35802
534
root 0.505256 17.7216 2.37919 7.26264 0.0941637 -1.75722
lowerback 0.826532 -0.384608 -0.669155
upperback 3.45054 -0.546609 1.58682
thorax 3.10248 -0.316721 1.99631
lowerneck -11.8658 0.045037 -1.70302
upperneck 35.6723 0.0306119 1.35027
head 14.1649 -0.0402279 0.854178
rclavicle 1.59028e-015 7.35503e-015
rhumerus -29.4689 -19.2131 -76.5509
rradius 22.5196
rwrist 35.3011
rhand -18.0104 -26.5162
rfingers 7.12502
rthumb 8.26025 -56.3347
lclavicle 1.59028e-015 7.35503e-015
lhumerus -25.1449 0.945903 87.4107
lradius 15.6078
lwrist -0.0416959
lhand -22.7442 -2.65411
lfingers 7.12502
lthumb 3.69015 27.2937
rfemur -17.4662 -3.08529 20.3445
rtibia 22.7828
rfoot -11.1207 -2.47986
rtoes 13.6962
lfemur -16.4906 7.87026 -17.581
ltibia 20.5346
lfoot -8.6743 3.97552
ltoes -2.31297
535
root 0.505142 17.7226 2.37699 7.24699 0.083211 -1.76315
lowerback 0.797602 -0.381412 -0.665248
upperback 3.44009 -0.542313 1.58604
thorax 3.10775 -0.314422 1.99323
lowerneck -11.8741 0.0518746 -1.69114
upperneck 35.6726 0.0400392 1.34375
head 14.1668 -0.035426 0.850889
rclavicle -7.45443e-016 -8.15017e-015
rhumerus -29.2532 -18.9084 -76.8324
rradius 22.6962
rwrist 34.9747
rhand -18.0001 -26.5069
rfingers 7.12502
rthumb 8.27024 -56.3251
lclavicle -7.45443e-016 -8.15017e-015
lhumerus -24.9088 0.5412 87.5667
lradius 15.9496
lwrist 0.548873
lhand -22.8697 -2.72011
lfingers 7.12502
lthumb 3.56893 27.2298
rfemur -17.4215 -3.06926 20.3469
rtibia 22.7169
rfoot -11.0947 -2.47634
rtoes 13.7273
lfemur -16.451 7.86189 -17.5699
ltibia 20.485
lfoot -8.65372 3.98655
ltoes -2.26417
